<?xml version="1.0" standalone="no"?>
<!DOCTYPE svg PUBLIC "-//W3C//DTD SVG 20010904//EN"
 "http://www.w3.org/TR/2001/REC-SVG-20010904/DTD/svg10.dtd">
<svg version="1.0" xmlns="http://www.w3.org/2000/svg"
 width="225.000000pt" height="225.000000pt" viewBox="0 0 225.000000 225.000000"
 preserveAspectRatio="xMidYMid meet">

<g transform="translate(0.000000,225.000000) scale(0.100000,-0.100000)"
fill="#000000" stroke="none">
<path d="M7 2243 c-4 -3 -7 -510 -7 -1125 l0 -1118 1125 0 1125 0 0 1125 0
1125 -1118 0 c-615 0 -1122 -3 -1125 -7z m1438 -512 c123 -50 195 -156 195
-290 0 -110 -47 -201 -131 -253 l-50 -32 38 -14 c86 -34 160 -111 183 -191 21
-73 24 -168 6 -234 -32 -116 -113 -195 -246 -239 -62 -21 -85 -23 -447 -26
l-383 -3 0 656 0 656 388 -3 c382 -3 388 -3 447 -27z"/>
<path d="M840 1390 l0 -182 218 4 c210 3 218 4 261 28 63 35 86 79 85 160 0
75 -20 117 -68 146 -28 17 -57 19 -263 22 l-233 3 0 -181z"/>
<path d="M840 840 l0 -200 238 0 c208 0 242 3 277 19 140 63 150 287 16 358
-43 22 -52 23 -288 23 l-243 0 0 -200z"/>
</g>
</svg>
