<?xml version="1.0" encoding="utf-8"?>
<!-- Generator: Adobe Illustrator 24.1.1, SVG Export Plug-In . SVG Version: 6.00 Build 0)  -->
<svg version="1.1" id="Layer_1" xmlns="http://www.w3.org/2000/svg" xmlns:xlink="http://www.w3.org/1999/xlink" x="0px" y="0px"
	 viewBox="0 0 512 512" style="enable-background:new 0 0 512 512;" xml:space="preserve">
<g>
	<path d="M498.5,161.7c-7.4,0-13.5-6-13.5-13.5V94.3c0-7.4-6-13.5-13.5-13.5h-53.9c-7.4,0-13.5-6-13.5-13.5s6-13.5,13.5-13.5h53.9
		c22.3,0,40.4,18.1,40.4,40.4v53.9C512,155.6,506,161.7,498.5,161.7z"/>
	<path d="M13.5,161.7c-7.4,0-13.5-6-13.5-13.5V94.3C0,72,18.1,53.9,40.4,53.9h53.9c7.4,0,13.5,6,13.5,13.5s-6,13.5-13.5,13.5H40.4
		c-7.4,0-13.5,6-13.5,13.5v53.9C26.9,155.6,20.9,161.7,13.5,161.7z"/>
	<path d="M94.3,458.1H40.4C18.1,458.1,0,440,0,417.7v-53.9c0-7.4,6-13.5,13.5-13.5s13.5,6,13.5,13.5v53.9c0,7.4,6,13.5,13.5,13.5
		h53.9c7.4,0,13.5,6,13.5,13.5C107.8,452.1,101.8,458.1,94.3,458.1z"/>
	<path d="M471.6,458.1h-53.9c-7.4,0-13.5-6-13.5-13.5c0-7.4,6-13.5,13.5-13.5h53.9c7.4,0,13.5-6,13.5-13.5v-53.9
		c0-7.4,6-13.5,13.5-13.5c7.4,0,13.5,6,13.5,13.5v53.9C512,440,493.9,458.1,471.6,458.1z"/>
</g>
</svg>
