<?xml version="1.0" standalone="no"?>
<!DOCTYPE svg PUBLIC "-//W3C//DTD SVG 20010904//EN"
 "http://www.w3.org/TR/2001/REC-SVG-20010904/DTD/svg10.dtd">
<svg version="1.0" xmlns="http://www.w3.org/2000/svg"
 width="397.000000pt" height="397.000000pt" viewBox="0 0 397.000000 397.000000"
 preserveAspectRatio="xMidYMid meet">

<g transform="translate(0.000000,397.000000) scale(0.100000,-0.100000)"
fill="#000000" stroke="none">
<path d="M3281 2771 c-8 -5 -17 -26 -20 -47 l-6 -39 -73 -3 c-64 -3 -72 -5
-72 -22 0 -19 8 -20 245 -20 237 0 245 1 245 20 0 17 -8 19 -72 22 l-73 3 -3
35 c-2 19 -8 41 -14 47 -12 15 -135 18 -157 4z m124 -61 c0 -23 -4 -25 -47
-28 -48 -3 -48 -3 -48 28 0 31 0 31 48 28 43 -3 47 -5 47 -28z"/>
<path d="M2353 2722 c-139 -50 -212 -150 -213 -293 0 -85 22 -147 72 -204 85
-96 218 -129 348 -85 l65 22 21 -27 21 -26 28 78 c16 43 30 84 33 91 3 9 -19
12 -92 12 l-97 0 18 -30 c21 -37 15 -43 -63 -61 -42 -9 -60 -9 -105 4 -210 62
-240 335 -46 432 91 45 194 30 265 -38 49 -47 75 -103 76 -164 l1 -53 38 0 37
0 0 48 c0 81 -25 145 -80 205 -85 93 -217 129 -327 89z"/>
<path d="M586 2469 l-167 -164 57 -49 56 -49 161 161 162 162 -51 51 -51 51
-167 -163z"/>
<path d="M3140 2365 l0 -245 220 0 220 0 0 245 0 245 -220 0 -220 0 0 -245z
m115 0 c0 -169 0 -170 -22 -173 l-23 -3 0 176 0 176 23 -3 c22 -3 22 -4 22
-173z m125 -1 l0 -175 -22 3 c-23 3 -23 6 -26 163 -1 87 0 165 2 172 3 7 15
13 26 13 19 0 20 -6 20 -176z m120 1 c0 -168 -1 -175 -20 -175 -19 0 -20 7
-20 175 0 168 1 175 20 175 19 0 20 -7 20 -175z"/>
<path d="M1310 2345 l0 -235 245 0 245 0 0 235 0 235 -245 0 -245 0 0 -235z
m420 150 c0 -13 -24 -15 -159 -15 -145 0 -182 5 -164 24 3 3 78 6 165 6 134 0
158 -2 158 -15z m-100 -50 c0 -13 -21 -15 -125 -15 -104 0 -125 2 -125 15 0
13 21 15 125 15 104 0 125 -2 125 -15z m100 -50 c0 -13 -24 -15 -159 -15 -145
0 -182 5 -164 24 3 3 78 6 165 6 134 0 158 -2 158 -15z m0 -50 c0 -13 -26 -15
-175 -15 -149 0 -175 2 -175 15 0 13 26 15 175 15 149 0 175 -2 175 -15z m0
-50 c0 -13 -26 -15 -175 -15 -149 0 -175 2 -175 15 0 13 26 15 175 15 149 0
175 -2 175 -15z m0 -50 c0 -13 -26 -15 -175 -15 -149 0 -175 2 -175 15 0 13
26 15 175 15 149 0 175 -2 175 -15z m-227 -50 c-4 -15 -115 -13 -121 3 -3 10
11 12 59 10 36 -2 63 -7 62 -13z"/>
<path d="M452 1948 c-29 -29 -3 -85 35 -75 15 4 14 5 -4 6 -41 2 -41 66 0 74
21 4 21 4 2 6 -12 0 -26 -4 -33 -11z"/>
<path d="M510 1915 c0 -25 5 -45 10 -45 6 0 10 10 10 23 l0 22 20 -25 20 -25
-9 27 c-6 16 -7 30 -1 33 17 10 -2 35 -26 35 -22 0 -24 -4 -24 -45z m40 20 c0
-8 -4 -15 -10 -15 -5 0 -10 7 -10 15 0 8 5 15 10 15 6 0 10 -7 10 -15z"/>
<path d="M580 1915 c0 -43 1 -45 28 -44 16 1 20 3 10 6 -21 5 -24 29 -5 36 10
4 10 6 0 6 -19 1 -15 29 5 34 10 3 6 5 -10 6 -27 1 -28 -1 -28 -44z"/>
<path d="M651 1919 c-7 -23 -10 -44 -7 -47 3 -3 6 0 6 6 0 7 9 12 20 12 11 0
20 -4 20 -10 0 -5 4 -10 9 -10 6 0 3 20 -6 45 -8 25 -18 45 -22 45 -4 0 -13
-18 -20 -41z m25 -16 c-11 -11 -19 6 -11 24 8 17 8 17 12 0 3 -10 2 -21 -1
-24z"/>
<path d="M717 1952 c6 -4 13 -25 16 -47 l4 -40 1 42 c1 23 8 44 15 46 6 3 -1
6 -18 6 -17 0 -25 -3 -18 -7z"/>
<path d="M770 1915 c0 -43 1 -45 28 -44 16 1 20 3 10 6 -10 2 -18 11 -18 18 0
7 8 16 18 18 16 4 16 5 0 6 -10 0 -18 7 -18 15 0 8 8 17 18 19 10 3 6 5 -10 6
-27 1 -28 -1 -28 -44z"/>
<path d="M1420 1915 c0 -25 5 -45 10 -45 6 0 10 10 10 23 l0 22 20 -25 20 -25
-9 27 c-6 16 -7 30 -1 33 17 10 -2 35 -26 35 -22 0 -24 -4 -24 -45z m40 20 c0
-8 -4 -15 -10 -15 -5 0 -10 7 -10 15 0 8 5 15 10 15 6 0 10 -7 10 -15z"/>
<path d="M1490 1915 c0 -43 1 -45 28 -44 16 1 20 3 10 6 -10 2 -18 11 -18 18
0 7 8 16 18 18 16 4 16 5 0 6 -10 0 -18 7 -18 15 0 8 8 17 18 19 10 3 6 5 -10
6 -27 1 -28 -1 -28 -44z"/>
<path d="M1577 1953 c-10 -10 -8 -25 2 -19 5 3 11 -1 15 -9 7 -18 -14 -32 -24
-15 -5 8 -9 4 -13 -11 -4 -13 -4 -25 -2 -28 3 -2 5 1 5 7 0 16 33 15 49 0 11
-11 12 -8 6 12 -12 39 -24 70 -28 70 -2 0 -7 -3 -10 -7z"/>
<path d="M1630 1915 c0 -36 3 -45 18 -45 29 0 45 16 45 45 0 29 -16 45 -45 45
-15 0 -18 -9 -18 -45z m45 0 c0 -16 -6 -30 -12 -32 -9 -3 -13 7 -13 32 0 25 4
35 13 33 6 -3 12 -17 12 -33z"/>
<path d="M2250 1928 c0 -42 12 -61 36 -56 15 2 19 12 20 43 l1 40 -4 -37 c-6
-54 -33 -52 -33 2 0 22 -4 40 -10 40 -5 0 -10 -15 -10 -32z"/>
<path d="M2330 1916 c0 -25 5 -46 10 -46 6 0 10 9 10 20 0 12 7 20 16 20 25 0
13 44 -13 48 -21 3 -23 -1 -23 -42z m40 13 c0 -5 -4 -9 -10 -9 -5 0 -10 7 -10
16 0 8 5 12 10 9 6 -3 10 -10 10 -16z"/>
<path d="M2390 1915 c0 -38 3 -45 19 -45 23 0 51 25 51 45 0 20 -28 45 -51 45
-16 0 -19 -7 -19 -45z m45 0 c0 -16 -6 -30 -12 -32 -9 -3 -13 7 -13 32 0 25 4
35 13 33 6 -3 12 -17 12 -33z"/>
<path d="M2482 1939 c-22 -57 -25 -75 -11 -61 16 15 49 16 49 0 0 -6 2 -9 5
-6 6 6 -14 69 -26 82 -5 5 -12 -1 -17 -15z m25 -36 c-11 -10 -26 8 -20 23 5
15 7 14 15 -1 6 -9 7 -19 5 -22z"/>
<path d="M2538 1953 c7 -2 12 -22 12 -44 0 -21 5 -39 10 -39 6 0 10 18 10 39
0 22 5 42 13 44 6 3 -4 5 -23 5 -19 0 -29 -2 -22 -5z"/>
<path d="M2600 1915 c0 -43 1 -45 28 -44 23 2 24 2 5 6 -27 5 -31 30 -5 36 16
4 16 5 0 6 -10 0 -18 7 -18 15 0 8 8 17 18 19 13 4 11 5 -5 6 -21 1 -23 -4
-23 -44z"/>
<path d="M3170 1915 c0 -38 3 -45 19 -45 23 0 51 25 51 45 0 20 -28 45 -51 45
-16 0 -19 -7 -19 -45z m45 0 c0 -16 -6 -30 -12 -32 -9 -3 -13 7 -13 32 0 25 4
35 13 33 6 -3 12 -17 12 -33z"/>
<path d="M3250 1915 c0 -43 1 -45 28 -44 16 1 20 3 10 6 -10 2 -18 11 -18 18
0 7 8 16 18 18 16 4 16 5 0 6 -10 0 -18 7 -18 15 0 8 8 17 18 19 10 3 6 5 -10
6 -27 1 -28 -1 -28 -44z"/>
<path d="M3310 1915 c0 -43 1 -45 28 -44 16 1 20 3 10 6 -13 3 -18 15 -18 44
0 21 -4 39 -10 39 -5 0 -10 -20 -10 -45z"/>
<path d="M3370 1915 c0 -43 1 -45 28 -44 23 2 24 2 5 6 -27 5 -31 30 -5 36 16
4 16 5 0 6 -10 0 -18 7 -18 15 0 8 8 17 18 19 13 4 11 5 -5 6 -21 1 -23 -4
-23 -44z"/>
<path d="M3428 1953 c7 -2 12 -22 12 -44 0 -21 5 -39 10 -39 6 0 10 18 10 39
0 22 5 42 13 44 6 3 -4 5 -23 5 -19 0 -29 -2 -22 -5z"/>
<path d="M3490 1915 c0 -43 1 -45 28 -44 16 1 20 3 10 6 -21 5 -24 29 -5 36
10 4 10 6 0 6 -19 1 -15 29 5 34 10 3 6 5 -10 6 -27 1 -28 -1 -28 -44z"/>
<path d="M595 1596 c-88 -39 -130 -173 -90 -287 29 -82 84 -119 179 -119 72 0
86 6 86 40 l0 28 -60 -5 c-98 -9 -140 37 -140 152 0 61 18 105 52 129 25 18
100 21 129 6 17 -10 19 -7 19 23 0 27 -5 36 -22 41 -39 10 -122 6 -153 -8z"/>
<path d="M1420 1400 l0 -210 40 0 40 0 0 90 c0 89 0 90 25 90 31 0 47 -25 71
-112 l19 -68 38 0 c27 0 38 4 35 13 -3 6 -17 49 -33 95 -15 46 -34 86 -42 89
-11 4 -5 13 21 35 32 26 36 35 36 77 0 38 -5 54 -25 73 -30 30 -63 38 -156 38
l-69 0 0 -210z m162 133 c41 -37 10 -103 -49 -103 l-33 0 0 60 0 60 32 0 c17
0 40 -7 50 -17z"/>
<path d="M2310 1463 c0 -165 8 -208 46 -244 22 -21 35 -24 95 -24 64 0 71 2
101 33 l33 32 3 175 3 175 -35 0 -36 0 0 -159 c0 -139 -2 -162 -18 -182 -13
-15 -30 -22 -52 -22 -55 0 -60 16 -60 200 l0 163 -40 0 -40 0 0 -147z"/>
<path d="M3210 1400 l0 -210 68 0 c92 0 140 16 183 59 69 69 76 215 14 297
-32 42 -101 64 -197 64 l-68 0 0 -210z m169 135 c34 -17 61 -78 61 -135 0 -89
-48 -150 -120 -150 l-30 0 0 150 0 150 30 0 c17 0 44 -7 59 -15z"/>
</g>
</svg>
