<?xml version="1.0" standalone="no"?>
<!DOCTYPE svg PUBLIC "-//W3C//DTD SVG 20010904//EN"
 "http://www.w3.org/TR/2001/REC-SVG-20010904/DTD/svg10.dtd">
<svg version="1.0" xmlns="http://www.w3.org/2000/svg"
 width="400.000000pt" height="400.000000pt" viewBox="0 0 400.000000 400.000000"
 preserveAspectRatio="xMidYMid meet">

<g transform="translate(0.000000,400.000000) scale(0.100000,-0.100000)"
fill="#000000" stroke="none">
<path d="M1114 3464 c-42 -100 -50 -239 -22 -371 11 -51 10 -52 -24 -95 -44
-53 -90 -144 -115 -224 -14 -47 -18 -90 -17 -214 1 -142 10 -210 40 -316 5
-21 3 -21 -223 -27 -260 -8 -515 -36 -529 -59 -4 -6 1 -8 12 -4 87 27 594 65
698 52 48 -6 58 -11 71 -36 l15 -28 -78 -6 c-189 -15 -305 -28 -412 -46 -152
-25 -300 -60 -300 -70 0 -5 24 -2 53 6 170 46 518 94 675 94 l69 0 38 -56
c109 -159 340 -276 610 -309 l56 -7 -43 -47 c-24 -25 -52 -66 -62 -91 -10 -25
-21 -52 -26 -60 -11 -22 -106 -49 -176 -49 -114 -2 -191 42 -263 148 -43 63
-103 121 -153 147 -40 21 -132 25 -150 6 -11 -12 -5 -20 31 -50 93 -77 132
-126 182 -228 57 -116 98 -161 188 -203 52 -24 66 -26 194 -26 l138 0 -3 -172
c-3 -193 -6 -202 -86 -256 -81 -55 -42 -90 77 -69 77 13 136 50 163 104 17 33
20 63 21 280 2 215 4 247 21 281 10 20 22 37 27 37 5 0 9 -121 9 -272 0 -292
-9 -367 -49 -417 -77 -96 -21 -130 102 -63 54 29 99 86 116 147 7 25 11 150
11 333 l0 292 24 0 25 0 3 -312 c3 -298 4 -315 24 -353 28 -51 68 -92 117
-116 85 -44 155 -19 109 38 -33 40 -52 88 -63 152 -13 79 -12 574 1 566 6 -3
18 -21 28 -38 14 -27 18 -70 22 -288 l5 -256 27 -35 c33 -44 98 -77 166 -85
106 -12 135 23 60 74 -81 54 -82 60 -88 388 l-5 290 -28 61 c-16 34 -46 79
-68 100 l-39 38 107 18 c218 36 355 93 459 191 37 34 80 85 96 114 l30 53 74
0 c162 0 508 -48 682 -94 28 -8 52 -11 52 -6 0 10 -148 45 -300 70 -114 19
-246 34 -412 45 l-86 7 9 28 c10 27 14 29 92 35 136 11 604 -24 689 -51 10 -3
18 -1 18 4 0 24 -374 62 -619 62 l-163 0 6 24 c30 121 37 423 11 521 -23 87
-75 192 -129 257 l-47 58 12 61 c15 78 6 204 -21 293 l-22 69 -68 -6 c-83 -7
-193 -49 -306 -117 l-80 -48 -65 13 c-35 8 -121 19 -191 26 -146 14 -340 1
-472 -30 l-80 -19 -89 54 c-113 68 -235 115 -314 122 l-63 5 -16 -39z m901
-798 c66 0 210 2 320 5 176 3 206 2 253 -14 69 -24 149 -99 193 -179 34 -62
34 -64 34 -188 -1 -105 -4 -134 -23 -181 -63 -158 -184 -237 -412 -270 -112
-15 -550 -16 -660 0 -189 27 -299 70 -387 153 -87 83 -131 208 -121 348 11
156 132 299 280 330 24 5 122 6 223 2 99 -4 234 -7 300 -6z m-1031 -875 c9
-13 -19 -32 -38 -25 -17 6 -20 16 -9 27 9 10 41 9 47 -2z m75 -44 c13 -16 5
-27 -20 -27 -24 0 -35 20 -18 31 19 12 25 11 38 -4z m50 -56 c17 -11 5 -31
-19 -31 -21 0 -34 15 -25 30 8 12 25 13 44 1z m46 -81 c0 -22 -39 -19 -43 3
-3 15 1 18 20 15 12 -2 23 -10 23 -18z m50 -60 c0 -8 -10 -16 -22 -18 -22 -3
-32 16 -16 32 12 11 38 2 38 -14z m71 -51 c3 -6 1 -15 -7 -19 -16 -10 -52 7
-44 21 8 13 42 11 51 -2z m284 -23 c0 -16 -19 -25 -37 -18 -23 8 -14 32 12 32
15 0 25 -6 25 -14z m-192 -19 c2 -11 -3 -17 -17 -17 -25 0 -38 19 -20 31 19
12 33 6 37 -14z m91 14 c17 -11 5 -31 -19 -31 -24 0 -36 20 -19 31 8 5 16 9
19 9 3 0 11 -4 19 -9z"/>
<path d="M1520 2422 c-62 -63 -64 -180 -4 -252 20 -23 34 -30 63 -30 88 0 140
131 92 236 -35 77 -100 97 -151 46z"/>
<path d="M2426 2425 c-35 -32 -46 -64 -46 -131 0 -64 19 -115 51 -138 27 -18
71 -21 101 -5 28 15 58 86 58 141 0 125 -92 200 -164 133z"/>
<path d="M1992 2108 c-28 -28 -1 -75 37 -63 11 3 23 15 26 26 12 38 -35 65
-63 37z"/>
<path d="M1920 1979 c0 -6 13 -24 29 -40 39 -38 96 -40 135 -4 14 13 26 31 26
40 0 21 -4 19 -40 -16 -26 -26 -36 -30 -63 -25 -18 3 -41 17 -52 31 -22 27
-35 32 -35 14z"/>
</g>
</svg>
