<?xml version="1.0" standalone="no"?>
<!DOCTYPE svg PUBLIC "-//W3C//DTD SVG 20010904//EN"
 "http://www.w3.org/TR/2001/REC-SVG-20010904/DTD/svg10.dtd">
<svg version="1.0" xmlns="http://www.w3.org/2000/svg"
 width="400.000000pt" height="400.000000pt" viewBox="0 0 400.000000 400.000000"
 preserveAspectRatio="xMidYMid meet">

<g transform="translate(0.000000,400.000000) scale(0.100000,-0.100000)"
fill="#000000" stroke="none">
<path d="M184 3209 c-34 -13 -69 -37 -102 -73 -87 -92 -82 -23 -82 -1136 0
-1113 -5 -1044 82 -1136 35 -37 67 -60 105 -74 53 -20 70 -20 1813 -20 1743 0
1760 0 1813 20 38 14 70 37 105 74 87 92 82 23 82 1136 0 1113 5 1044 -82
1136 -35 37 -67 60 -105 74 -53 20 -70 20 -1816 19 -1729 0 -1763 0 -1813 -20z
m965 -789 c106 -132 195 -240 199 -239 4 0 93 108 197 240 l190 239 190 -2
190 -3 0 -655 0 -655 -190 0 -190 0 -5 372 -5 372 -180 -225 c-99 -124 -185
-230 -191 -235 -8 -6 -71 66 -200 227 l-189 237 -3 -377 -2 -376 -190 0 -190
0 0 660 0 660 188 0 188 0 193 -240z m2009 -92 l2 -328 185 0 c102 0 185 -3
185 -6 0 -4 -26 -36 -57 -72 -32 -36 -129 -149 -217 -251 -221 -259 -288 -336
-295 -338 -5 -1 -525 600 -560 648 -13 18 -8 19 178 19 l191 0 0 330 0 330
193 -2 192 -3 3 -327z"/>
</g>
</svg>
