<?xml version="1.0" encoding="UTF-8"?>
<svg height="400" style="background:#13232d" viewBox="0 0 400 400" width="400" xmlns="http://www.w3.org/2000/svg" xmlns:openbadges="http://openbadges.org"><openbadges:assertion verify="https://api.badgr.io/public/assertions/W4W6GfKOSdG0mSRX8wlPMg"><![CDATA[{
  "@context": "https://w3id.org/openbadges/v2",
  "type": "Assertion",
  "id": "https://api.badgr.io/public/assertions/W4W6GfKOSdG0mSRX8wlPMg",
  "badge": "https://api.badgr.io/public/badges/4sD926TdQhC7pk87yYu4LA",
  "image": "https://api.badgr.io/public/assertions/W4W6GfKOSdG0mSRX8wlPMg/image",
  "verification": {
    "type": "HostedBadge"
  },
  "narrative": "A small npm project getting the holiday dates for the country and the year wanted.",
  "issuedOn": "2021-02-11T12:58:55.984786+00:00",
  "recipient": {
    "hashed": true,
    "type": "email",
    "identity": "sha256$efe8cc39f6969afc6a9347edd099e5f299cc2aee8fbadc825a9380e77e60a471",
    "salt": "5ec405bca0e34468b71f9f76ac4e68e0"
  }
}]]></openbadges:assertion>
  <g fill="none" fill-rule="evenodd">
    <rect fill="#13232D" height="400" width="400"/>
    <path d="M303.703489,108.130298 C305.71911,108.130298 307.363064,106.486344 307.363064,104.470723 L307.363064,72.9354383 L337.382919,72.9354383 C339.39854,72.9354383 341.042494,71.2914843 341.042494,69.2758638 L341.042494,3.86097021 C341.042494,1.84534979 339.39854,0.201395745 337.382919,0.201395745 L271.953387,0.201395745 C269.937767,0.201395745 268.293813,1.84534979 268.293813,3.86097021 L268.293813,69.2758638 C268.293813,71.2914843 269.937767,72.9354383 271.953387,72.9354383 L300.043549,72.9354383 L300.043549,100.811149 L174.64457,100.811149 L174.64457,72.9354383 L203.692443,72.9354383 C205.708063,72.9354383 207.352017,71.2914843 207.352017,69.2758638 L207.352017,3.86097021 C207.352017,1.84534979 205.708063,0.201395745 203.692443,0.201395745 L138.277549,0.201395745 C136.261929,0.201395745 134.617974,1.84534979 134.617974,3.86097021 L134.617974,69.2758638 C134.617974,71.2914843 136.261929,72.9354383 138.277549,72.9354383 L167.325421,72.9354383 L167.325421,100.811149 L41.9557191,100.811149 L41.9557191,72.9354383 L70.0316085,72.9354383 C72.0472289,72.9354383 73.691183,71.2914843 73.691183,69.2758638 L73.6768887,3.86097021 C73.6768887,1.84534979 72.0329346,0.201395745 70.0173142,0.201395745 L4.61705889,0.201395745 C2.60143847,0.201395745 0.957484426,1.84534979 0.957484426,3.86097021 L0.957484426,69.2758638 C0.957484426,71.2914843 2.60143847,72.9354383 4.61705889,72.9354383 L34.6369142,72.9354383 L34.6369142,104.470723 C34.6369142,106.486344 36.2808683,108.130298 38.2964887,108.130298 L167.325765,108.130298 L167.325765,136.006009 L75.0203185,136.006009 C73.004698,136.006009 71.360744,137.649963 71.360744,139.665583 L71.360744,197.977243 C71.360744,199.992863 73.004698,201.636817 75.0203185,201.636817 L167.351382,201.636817 L167.351382,229.869702 L38.2928291,229.869702 C36.2772087,229.869702 34.6332546,231.513656 34.6332546,233.529277 L34.6332546,265.064562 L4.61339932,265.064562 C2.59777889,265.064562 0.953824851,266.708516 0.953824851,268.724136 L0.953824851,334.13903 C0.953824851,336.15465 2.59777889,337.79897 4.61339932,337.79897 L70.0429312,337.79897 C72.0585517,337.79897 73.7025057,336.15465 73.7025057,334.13903 L73.7025057,268.724136 C73.7025057,266.708516 72.0585517,265.064562 70.0429312,265.064562 L41.9527695,265.064562 L41.9527695,237.188851 L167.351748,237.188851 L167.351748,265.064562 L138.303876,265.064562 C136.288255,265.064562 134.644301,266.708516 134.644301,268.724136 L134.644301,334.13903 C134.644301,336.15465 136.288255,337.79897 138.303876,337.79897 L203.704131,337.79897 C205.719752,337.79897 207.363706,336.15465 207.363706,334.13903 L207.363706,268.724136 C207.363706,266.708516 205.719752,265.064562 203.704131,265.064562 L174.670531,265.064562 L174.670531,237.188851 L300.040233,237.188851 L300.040233,265.050289 L271.964344,265.050289 C269.948724,265.050289 268.30477,266.694243 268.30477,268.709864 L268.30477,334.139396 C268.30477,336.155016 269.948724,337.79897 271.964344,337.79897 L337.379238,337.79897 C339.394858,337.79897 341.038812,336.155016 341.038812,334.139396 L341.038812,268.709864 C341.038812,266.694243 339.394858,265.050289 337.379238,265.050289 L307.359382,265.050289 L307.359382,233.529277 C307.359382,231.513656 305.715428,229.869702 303.699808,229.869702 L174.670531,229.869702 L174.670531,201.636817 L266.975978,201.636817 C268.991598,201.636817 270.635553,199.992863 270.635553,197.977243 L270.635553,139.665583 C270.635553,137.649963 268.991598,136.006009 266.975978,136.006009 L174.644914,136.006009 L174.644914,108.130298 L303.703489,108.130298 Z" fill="#FFF" fill-rule="nonzero" transform="translate(29 31)"/>
    <circle cx="200" cy="200" fill="#009640" r="50" stroke="#13232D" stroke-width="10"/>
    <path d="M205.36,205.86 C205.52,203.58 206.07,201.69 207.01,200.19 C207.95,198.69 209.32,197 211.12,195.12 C212.8,193.4 214.06,191.86 214.9,190.5 C215.74,189.14 216.16,187.5 216.16,185.58 C216.16,182.42 215.1,180.08 212.98,178.56 C210.86,177.04 207.64,176.28 203.32,176.28 C200.4,176.28 198.14,176.36 196.54,176.52 C194.94,176.68 193.06,176.96 190.9,177.36 L190.9,177.36 L188.86,177.72 L189.16,183.78 C193.68,183.58 197.7,183.48 201.22,183.48 C203.26,183.48 204.72,183.79 205.6,184.41 C206.48,185.03 206.86,186 206.74,187.32 C206.7,188.12 206.43,188.9 205.93,189.66 C205.43,190.42 204.66,191.42 203.62,192.66 C202.46,194.02 201.5,195.26 200.74,196.38 C199.98,197.5 199.34,198.86 198.82,200.46 C198.3,202.06 198.08,203.86 198.16,205.86 L198.16,205.86 L205.36,205.86 Z M202.78,219 C203.94,219 204.75,218.77 205.21,218.31 C205.67,217.85 205.9,217.04 205.9,215.88 L205.9,215.88 L205.9,213 C205.9,211.84 205.67,211.04 205.21,210.6 C204.75,210.16 203.94,209.94 202.78,209.94 L202.78,209.94 L200.68,209.94 C199.52,209.94 198.71,210.16 198.25,210.6 C197.79,211.04 197.56,211.84 197.56,213 L197.56,213 L197.56,215.88 C197.56,217.04 197.79,217.85 198.25,218.31 C198.71,218.77 199.52,219 200.68,219 L200.68,219 L202.78,219 Z" fill="#FFF" fill-rule="nonzero"/>
  </g>
</svg>