<?xml version="1.0" standalone="no"?>
<!DOCTYPE svg PUBLIC "-//W3C//DTD SVG 20010904//EN"
 "http://www.w3.org/TR/2001/REC-SVG-20010904/DTD/svg10.dtd">
<svg version="1.0" xmlns="http://www.w3.org/2000/svg"
 width="400.000000pt" height="400.000000pt" viewBox="0 0 400.000000 400.000000"
 preserveAspectRatio="xMidYMid meet">

<g transform="translate(0.000000,400.000000) scale(0.100000,-0.100000)"
fill="#000000" stroke="none">
<path d="M572 2894 l-22 -15 0 -360 0 -359 -154 0 c-140 0 -156 -2 -180 -21
l-26 -20 0 -504 0 -504 27 -21 c26 -20 34 -21 346 -18 302 3 319 4 333 22 11
16 14 64 14 228 l0 208 210 0 210 0 0 -90 0 -90 -120 0 -120 0 0 -45 0 -45
383 0 382 0 0 45 0 45 -122 0 -123 0 0 90 0 90 210 0 210 0 0 -128 0 -128 -84
-119 -85 -120 777 -3 777 -2 17 -30 17 -30 160 0 c154 0 160 1 175 22 14 19
16 71 16 360 0 410 12 378 -145 378 l-105 0 0 269 c0 268 0 270 -22 285 -20
14 -91 16 -575 16 l-553 0 0 279 c0 266 -1 279 -21 305 l-20 26 -883 0 c-782
0 -884 -2 -904 -16z m1760 -66 c2 -13 2 -247 0 -521 l-2 -497 -708 2 -707 3
-5 157 c-3 110 -9 161 -18 170 -9 9 -54 14 -147 16 l-135 4 0 344 0 344 859 0
860 0 3 -22z m1158 -843 c0 -220 -2 -255 -15 -255 -8 0 -24 -9 -35 -20 -19
-19 -20 -33 -20 -225 l0 -205 -665 0 -665 0 0 125 0 125 133 0 c72 0 137 4
143 8 31 20 34 54 34 376 l0 326 545 0 545 0 0 -255z m-2640 -330 l0 -435
-300 0 -300 0 0 435 0 435 300 0 300 0 0 -435z m2833 40 c-4 -15 -135 -13
-141 3 -3 10 13 12 70 10 42 -2 72 -7 71 -13z m-2075 -12 c-3 -16 -18 -18
-128 -21 -123 -2 -159 5 -146 27 5 7 54 11 142 11 124 0 135 -2 132 -17z
m2162 -323 l0 -300 -160 0 -160 0 0 300 0 300 160 0 160 0 0 -300z m-3176
-192 c16 -26 -4 -52 -42 -56 -38 -4 -59 26 -42 59 14 25 67 23 84 -3z m1639 2
c-4 -14 -14 -20 -34 -20 -31 0 -32 1 -23 24 4 9 18 16 34 16 23 0 27 -4 23
-20z m77 0 c-9 -17 -60 -30 -60 -16 0 22 17 36 41 36 27 0 29 -2 19 -20z m80
0 c-12 -23 -60 -28 -60 -7 0 20 10 27 42 27 26 0 28 -2 18 -20z m78 3 c-4 -22
-58 -31 -58 -10 0 20 10 27 37 27 18 0 24 -5 21 -17z m80 0 c-2 -11 -14 -19
-31 -21 -22 -3 -27 1 -27 17 0 17 6 21 31 21 24 0 30 -4 27 -17z m82 13 c0
-20 -16 -36 -36 -36 -17 0 -24 6 -24 20 0 16 7 20 30 20 17 0 30 -2 30 -4z
m70 -16 c0 -16 -7 -20 -30 -20 -32 0 -33 1 -24 24 9 24 54 21 54 -4z m80 0 c0
-15 -7 -20 -25 -20 -18 0 -25 5 -25 20 0 15 7 20 25 20 18 0 25 -5 25 -20z
m80 0 c0 -16 -7 -20 -30 -20 -23 0 -30 4 -30 20 0 16 7 20 30 20 23 0 30 -4
30 -20z m80 0 c0 -16 -7 -20 -30 -20 -23 0 -30 4 -30 20 0 16 7 20 30 20 23 0
30 -4 30 -20z m80 -1 c0 -16 -5 -20 -27 -17 -17 2 -29 10 -31 21 -3 13 3 17
27 17 25 0 31 -4 31 -21z m78 -1 c3 -14 -3 -18 -27 -18 -25 0 -31 4 -31 21 0
16 5 20 27 17 17 -2 29 -10 31 -20z m72 18 c0 -2 3 -11 6 -20 5 -12 -1 -16
-24 -16 -21 0 -31 6 -35 20 -4 17 0 20 24 20 16 0 29 -2 29 -4z m88 -18 c5
-28 -54 -25 -61 3 -5 18 -1 20 26 17 21 -2 33 -9 35 -20z m72 18 c0 -2 3 -11
6 -20 5 -13 -1 -16 -25 -16 -17 0 -31 2 -31 4 0 2 -3 11 -6 20 -5 13 1 16 25
16 17 0 31 -2 31 -4z m80 -16 c10 -18 8 -20 -20 -20 -16 0 -30 2 -30 4 0 2 -3
11 -6 20 -10 25 43 21 56 -4z m-252 -72 c3 -17 -20 -18 -366 -18 -366 0 -370
0 -365 20 5 20 12 20 367 18 334 -3 361 -4 364 -20z m480 -85 c3 -19 -1 -23
-22 -23 -28 0 -41 14 -32 36 9 24 50 13 54 -13z"/>
</g>
</svg>
