<?xml version="1.0" standalone="no"?>
<!DOCTYPE svg PUBLIC "-//W3C//DTD SVG 20010904//EN"
 "http://www.w3.org/TR/2001/REC-SVG-20010904/DTD/svg10.dtd">
<svg version="1.0" xmlns="http://www.w3.org/2000/svg"
 width="512.000000pt" height="512.000000pt" viewBox="0 0 512.000000 512.000000"
 preserveAspectRatio="xMidYMid meet">

<g transform="translate(0.000000,512.000000) scale(0.100000,-0.100000)"
fill="#000000" stroke="none">
<path d="M2305 5113 c-250 -22 -500 -90 -708 -194 -399 -200 -721 -578 -821
-963 -39 -148 -48 -238 -44 -431 l4 -180 49 -110 c54 -122 67 -198 46 -283 -7
-26 -52 -121 -100 -212 -130 -243 -184 -366 -185 -420 -2 -82 60 -134 179
-149 70 -9 76 -24 74 -189 -2 -125 -1 -134 20 -156 13 -14 36 -30 53 -37 27
-11 29 -16 23 -43 -19 -89 -16 -120 14 -171 17 -27 43 -75 57 -105 27 -53 27
-56 16 -135 -31 -209 1 -289 134 -336 86 -31 282 -37 460 -14 232 30 368 10
461 -69 30 -27 61 -78 135 -223 115 -226 260 -540 284 -614 9 -30 20 -58 24
-62 4 -5 22 16 39 46 50 87 209 313 312 442 141 177 313 355 459 477 148 123
365 247 515 293 46 14 69 27 68 36 -1 8 -8 46 -17 84 -20 90 -20 260 0 365 31
165 104 334 214 495 359 525 470 749 500 1005 53 446 -169 950 -601 1364 -316
302 -665 441 -1223 486 -120 9 -349 11 -441 3z m-5 -691 l0 -89 43 -13 c23 -7
62 -23 87 -35 l45 -24 63 62 62 62 147 -148 148 -147 -61 -62 -62 -63 24 -50
c13 -27 29 -67 36 -87 l11 -38 89 0 88 0 0 -210 0 -210 -88 0 -88 0 -35 -89
-36 -89 61 -61 61 -61 -147 -147 -148 -148 -64 64 -63 63 -49 -25 c-27 -13
-66 -30 -86 -36 l-38 -13 0 -89 0 -89 -210 0 -210 0 0 89 0 89 -37 13 c-21 6
-60 23 -87 36 l-49 25 -63 -63 -64 -64 -147 148 -148 147 62 62 63 63 -24 50
c-12 28 -28 67 -35 88 l-13 37 -89 0 -89 0 0 210 0 210 88 0 88 0 23 63 c12
34 28 73 36 87 13 24 11 28 -48 88 l-62 62 148 147 147 148 62 -62 63 -62 45
24 c25 12 64 28 88 35 l42 13 0 89 0 88 210 0 210 0 0 -88z m1570 -586 l0 -53
43 -17 c56 -21 56 -21 94 16 l33 32 98 -97 97 -97 -36 -36 -36 -36 20 -49 21
-49 53 0 53 0 0 -140 0 -140 -53 0 -53 0 -21 -49 -21 -49 34 -33 c19 -18 34
-38 34 -44 0 -6 -43 -53 -95 -105 l-95 -94 -37 36 -38 37 -48 -17 -47 -17 0
-52 0 -53 -139 0 -140 0 -3 51 c-3 50 -3 51 -51 71 l-48 21 -37 -36 -37 -37
-97 97 -98 97 35 36 35 36 -19 49 -19 50 -56 3 -56 3 0 139 0 140 55 0 54 0
21 47 20 47 -37 38 -37 38 99 100 99 100 38 -37 37 -36 48 20 c48 19 48 20 51
71 l3 52 140 0 139 0 0 -54z"/>
<path d="M2026 3940 c-109 -19 -211 -98 -266 -206 -22 -43 -25 -62 -25 -149 0
-87 3 -107 27 -157 34 -73 103 -142 176 -176 49 -23 70 -27 152 -27 82 0 103
4 152 27 73 34 142 103 176 176 24 50 27 70 27 157 0 87 -3 106 -25 149 -78
153 -232 233 -394 206z"/>
<path d="M3657 3516 c-161 -58 -201 -267 -71 -374 144 -119 357 -19 357 168 0
92 -45 159 -133 199 -52 24 -99 26 -153 7z"/>
</g>
</svg>
