<?xml version="1.0" standalone="no"?>
<!DOCTYPE svg PUBLIC "-//W3C//DTD SVG 20010904//EN"
 "http://www.w3.org/TR/2001/REC-SVG-20010904/DTD/svg10.dtd">
<svg version="1.0" xmlns="http://www.w3.org/2000/svg"
 width="400.000000pt" height="400.000000pt" viewBox="0 0 400.000000 400.000000"
 preserveAspectRatio="xMidYMid meet">

<g transform="translate(0.000000,400.000000) scale(0.100000,-0.100000)"
fill="#000000" stroke="none">
<path d="M0 2000 l0 -2000 2000 0 2000 0 0 2000 0 2000 -2000 0 -2000 0 0
-2000z m3141 385 c89 -32 129 -89 129 -183 -1 -62 -26 -115 -87 -182 -89 -98
-121 -147 -134 -205 l-12 -55 -80 0 -80 0 7 57 c9 77 33 127 109 226 69 91 82
122 68 160 -16 41 -65 50 -227 45 -162 -6 -154 -10 -154 76 l0 53 88 12 c48 6
101 13 117 15 54 7 215 -5 256 -19z m-2143 -336 l262 -102 0 -76 0 -76 -263
-102 c-145 -57 -269 -103 -276 -103 -8 0 -11 20 -9 72 l3 71 175 64 c96 34
182 66 190 69 9 3 -50 29 -135 60 -82 29 -169 61 -192 70 l-43 16 0 75 c0 56
3 74 13 70 6 -3 130 -51 275 -108z m2039 -395 c7 -10 13 -44 13 -78 0 -80 -15
-96 -91 -96 -80 0 -91 13 -87 103 3 65 5 73 28 85 35 18 120 10 137 -14z
m-767 -239 l0 -65 -290 0 -290 0 0 65 0 65 290 0 290 0 0 -65z"/>
</g>
</svg>
